<?xml version="1.0" encoding="UTF-8"?>
<svg id="Layer_1" xmlns="http://www.w3.org/2000/svg" version="1.1" viewBox="0 0 1429.6 173.6">
  <!-- Generator: Adobe Illustrator 29.0.1, SVG Export Plug-In . SVG Version: 2.1.0 Build 192)  -->
  <defs>
    <style>
      .st0 {
        fill: #6232ab;
      }
    </style>
  </defs>
  <path class="st0" d="M1341.1,17.1v-.2c.2-.4.6-.7,1-.8v-.2c.2-.4.6-.7,1-.8v-.2c.2-.4.6-.7,1-.8v-.2c.2-.4.6-.7,1-.8v-.2c.2-.4.6-.7,1-.8v-.2c.2-.4.6-.7,1-.8v-.2c.2-.4.6-.7,1-.8v-.2c.2-.4.6-.7,1-.8v-.2c.2-.4.6-.7,1-.8v-.2c.2-.4.6-.7,1-.8v-.2c.2-.4.6-.7,1-.8v-.2c.2-.4.6-.7,1-.8v-.2c.2-.4.6-.7,1-.8v-.2c.2-.4.6-.7,1-.8v-.2c.2-.4.6-.7,1-.8v-.2c.3-.6.9-.9,1.5-.9h69.4c1.2,0,2,1.3,1.3,2.4l-53.6,90.6c0,.2-.2.5-.2.8v54.3c0,.7-.5,1.3-1.1,1.5-.2.5-.5.8-1,1-.2.5-.5.8-1,1-.2.5-.5.8-1,1-.2.5-.5.8-1,1-.2.5-.5.8-1,1-.2.5-.5.8-1,1-.2.5-.5.8-1,1-.2.5-.5.8-1,1-.2.5-.5.8-1,1-.2.5-.5.8-1,1-.2.5-.5.8-1,1-.2.5-.5.8-1,1-.2.5-.5.8-1,1-.2.5-.5.8-1,1-.2.5-.5.8-1,1-.2.5-.5.8-1,1-.2.5-.5.8-1,1-.2.5-.5.8-1,1-.2.5-.5.8-1,1-.2.6-.8,1.1-1.5,1.1h-359c-.9,0-1.6-.7-1.6-1.6v-25.8c0-.6-.3-1.1-.7-1.3h0c-.3.4-.6.7-.9,1h0c-.3.3-.6.6-.9.9h0c-.3.3-.6.6-.9.9h0c-.3.3-.6.6-.9.9h0c-.3.3-.6.6-.9.9h0c-.3.3-.6.6-.9.9h0c-.3.3-.6.6-.9.9h0c-.3.3-.6.6-.9.9h0c-.3.3-.6.6-.9.9h0c-.3.3-.6.6-.9.9-13.1,12.5-32.6,18.6-59.7,18.6h-69.9c-.9,0-1.6-.7-1.6-1.6V22.5c0-.7.5-1.3,1.1-1.5.2-.5.5-.9,1-1,.2-.5.5-.9,1-1,.2-.5.5-.9,1-1,.2-.5.5-.9,1-1,.2-.5.5-.9,1-1,.2-.5.5-.9,1-1,.2-.5.5-.9,1-1,.2-.5.5-.9,1-1,.2-.5.5-.9,1-1,.2-.5.5-.9,1-1,.2-.5.5-.9,1-1,.2-.5.5-.9,1-1,.2-.5.5-.9,1-1,.2-.5.5-.9,1-1,.2-.5.5-.9,1-1,.2-.5.5-.9,1-1,.2-.5.5-.9,1-1,.2-.5.5-.9,1-1,.2-.5.5-.9,1-1,.2-.6.8-1.1,1.5-1.1h66.6c27.2,0,45.9,6.5,58.4,16.4.2-.2.4-.3.6-.4.2-.5.5-.8,1-1,.2-.5.5-.8,1-1,.2-.5.5-.8,1-1,.2-.5.5-.8,1-1,.2-.5.5-.8,1-1,.2-.5.5-.8,1-1,.2-.5.5-.8,1-1,.2-.5.5-.8,1-1,.2-.5.5-.8,1-1,.2-.5.5-.8,1-1,.2-.5.5-.8,1-1,.2-.5.5-.8,1-1,.2-.5.5-.8,1-1,.2-.5.5-.8,1-1,.2-.5.5-.8,1-1,.2-.6.8-1.1,1.5-1.1h136.3c.9,0,1.6.7,1.6,1.6v85.6c0,.9.7,1.6,1.6,1.6h11.4V22.5c0-.7.5-1.3,1.1-1.5.2-.5.5-.8,1-1,.2-.5.5-.8,1-1,.2-.5.5-.8,1-1,.2-.5.5-.8,1-1,.2-.5.5-.8,1-1,.2-.5.5-.8,1-1,.2-.5.5-.8,1-1,.2-.5.5-.8,1-1,.2-.5.5-.8,1-1,.2-.5.5-.8,1-1,.2-.5.5-.8,1-1,.2-.5.5-.8,1-1,.2-.5.5-.8,1-1,.2-.5.5-.8,1-1,.2-.5.5-.8,1-1,.2-.5.5-.8,1-1,.2-.5.5-.8,1-1,.2-.5.5-.8,1-1,.2-.5.5-.8,1-1,.2-.6.8-1.1,1.5-1.1h144.6c.6,0,1.2.4,1.4.9l7.3,16.4c0,0,.3-.2.4-.2v-.2c.2-.4.6-.7,1-.8h-1.1ZM1364.5,91.6l47.7-80.6h-49.1l-18.5,41.8h-.4l-18.7-41.8h-62.9l47.5,80.6v49.1h54.4v-49.1ZM1291.2,140.6v-41h-43.4V11h-53v129.7h96.4ZM1185.2,140.6v-41h-43.4V11h-53v129.7h96.4ZM1074,140.6V11h-51.6v129.7h51.6ZM941.8,140.6c48.7,0,69.2-20.5,69.2-65s-21.3-64.6-72.5-64.6h-58.1v129.7h61.5-.1Z"/>
  <path class="st0" d="M941.2,50c10.8,0,17.7,7.9,17.7,25.6s-6.3,26-17.1,26h-9.5v-51.6h8.9,0Z"/>
  <path class="st0" d="M837.9,2.5v57.9c0,.7-.5,1.3-1.1,1.5-.2.5-.5.8-1,1-.2.5-.5.8-1,1-.2.5-.5.8-1,1-.2.5-.5.8-1,1-.2.5-.5.8-1,1-.2.5-.5.8-1,1-.2.5-.5.8-1,1-.2.5-.5.8-1,1-.2.5-.5.8-1,1-.2.5-.5.8-1,1-.2.5-.5.8-1,1-.2.5-.5.8-1,1-.2.5-.5.8-1,1-.2.5-.5.8-1,1-.2.5-.5.8-1,1-.2.5-.5.8-1,1-.2.5-.5.8-1,1-.2.5-.5.8-1,1-.2.5-.5.8-1,1-.2.6-.8,1.1-1.5,1.1h-8.6v67.1c0,.7-.5,1.3-1.1,1.5-.2.5-.5.8-1,1-.2.5-.5.8-1,1-.2.5-.5.8-1,1-.2.5-.5.8-1,1-.2.5-.5.8-1,1-.2.5-.5.8-1,1-.2.5-.5.8-1,1-.2.5-.5.8-1,1-.2.5-.5.8-1,1-.2.5-.5.8-1,1-.2.5-.5.8-1,1-.2.5-.5.8-1,1-.2.5-.5.8-1,1-.2.5-.5.8-1,1-.2.5-.5.8-1,1-.2.5-.5.8-1,1-.2.5-.5.8-1,1-.2.5-.5.8-1,1-.2.5-.5.8-1,1-.2.6-.8,1.1-1.5,1.1h-68.7c-.9,0-1.6-.7-1.6-1.6v-19.8c0-.7-1-.2-1-.2,0,.7-.5,1.3-1.1,1.5-.2.5-.5.9-1,1-.2.5-.5.9-1,1-.2.5-.5.9-1,1-.2.5-.5.9-1,1-.2.5-.5.9-1,1-.2.5-.5.9-1,1-.2.5-.5.9-1,1-.2.5-.5.9-1,1-.2.5-.5.9-1,1-.2.5-.5.9-1,1-.2.5-.5.9-1,1-.2.5-.5.9-1,1-.2.5-.5.9-1,1-.2.5-.5.9-1,1-.2.5-.5.9-1,1-.2.5-.5.9-1,1-.2.5-.5.9-1,1-.2.5-.5.9-1,1-.2.5-.5.9-1,1-.2.6-.8,1.1-1.5,1.1h-68.5c-.9,0-1.6-.7-1.6-1.6v-52.5c0-1.2-1.2-1.8-2.2-1.4,0,0-.2.2-.3.3-.3.3-.7.7-1,1s-.7.7-1,1c-8.2,8.6-20.2,13.9-35.9,15.9v15.8c0,.7-.5,1.3-1.1,1.5-.2.5-.5.8-1,1-.2.5-.5.8-1,1-.2.5-.5.8-1,1-.2.5-.5.8-1,1-.2.5-.5.8-1,1-.2.5-.5.8-1,1-.2.5-.5.8-1,1-.2.5-.5.8-1,1-.2.5-.5.8-1,1-.2.5-.5.8-1,1-.2.5-.5.8-1,1-.2.5-.5.8-1,1-.2.5-.5.8-1,1-.2.5-.5.8-1,1-.2.5-.5.8-1,1-.2.5-.5.8-1,1-.2.5-.5.8-1,1-.2.5-.5.8-1,1-.2.5-.5.8-1,1-.2.6-.8,1.1-1.5,1.1h-135.3c-.9,0-1.6-.7-1.6-1.6v-9.9c-.2.2-.4.3-.6.4-.2.5-.5.8-1,1-.2.5-.5.8-1,1-.2.5-.5.8-1,1-.2.5-.5.8-1,1-.2.5-.5.8-1,1-.2.5-.5.8-1,1-.2.5-.5.8-1,1-.2.5-.5.8-1,1-.2.5-.5.8-1,1-.2.5-.5.8-1,1-.2.6-.8,1.1-1.5,1.1h-68.7c-.9,0-1.6-.7-1.6-1.6v-16.3c0-1.2-1.2-1.8-2.2-1.4,0,0-.2.2-.3.2-.3.3-.7.7-1,1s-.7.7-1,1c-1,1-2,2-3.1,2.9-12.7,10.8-31.9,16-58.7,16s-41.3-4.5-53.3-13.5c-.2.2-.4.3-.7.4-.2.5-.5.9-1,1-.2.5-.5.9-1,1-.2.5-.5.9-1,1-.2.5-.5.9-1,1-.2.5-.5.9-1,1-.2.5-.5.9-1,1-.2.5-.5.9-1,1-.2.5-.5.9-1,1-.2.5-.5.9-1,1-.2.5-.5.9-1,1-.2.6-.8,1.1-1.5,1.1h-68.5c-.9,0-1.6-.7-1.6-1.6v-24.6c0-.7-.4-1.2-1-1.4h0l-1,1h0c-.3.4-.6.7-1,1h0c-.3.4-.6.7-1,1h0c-.3.4-.6.7-1,1h0c-.3.4-.6.7-1,1h0c-.3.4-.6.7-1,1h0c-.3.4-.6.7-1,1h0c-.3.4-.6.7-1,1h0c-.3.4-.6.7-1,1-13.1,12.5-32.7,18.6-59.8,18.6H.6c-.9,0-1.6-.7-1.6-1.6V22.5c0-.7.5-1.3,1.1-1.5.2-.5.5-.8,1-1,.2-.5.5-.8,1-1,.2-.5.5-.8,1-1,.2-.5.5-.8,1-1,.2-.5.5-.8,1-1,.2-.5.5-.8,1-1,.2-.5.5-.8,1-1,.2-.5.5-.8,1-1,.2-.5.5-.8,1-1,.2-.5.5-.8,1-1,.2-.5.5-.8,1-1,.2-.5.5-.8,1-1,.2-.5.5-.8,1-1,.2-.5.5-.8,1-1,.2-.5.5-.8,1-1,.2-.5.5-.8,1-1,.2-.5.5-.8,1-1,.2-.5.5-.8,1-1,.2-.5.5-.8,1-1,.2-.6.8-1.1,1.5-1.1h66.6c27,0,45.5,6.4,58.1,16.1h.2c.2-.5.5-.8,1-1,.2-.5.5-.8,1-1,.2-.5.5-.8,1-1,.2-.5.5-.8,1-1,.2-.5.5-.8,1-1,.2-.5.5-.8,1-1,.2-.5.5-.8,1-1,.2-.5.5-.8,1-1,.2-.5.5-.8,1-1,.2-.5.5-.8,1-1,.2-.5.5-.8,1-1,.2-.5.5-.8,1-1,.2-.5.5-.8,1-1,.2-.5.5-.8,1-1,.2-.5.5-.8,1-1,.2-.6.8-1.1,1.5-1.1h68.5c.9,0,1.6.7,1.6,1.6v17.7c0,1.2,1.1,1.8,2.1,1.4.2-.3.5-.5.8-.8s.7-.7,1-1,.7-.7,1-1c11.3-11.7,30.3-19.9,59.4-19.9s42.7,4.8,54.3,14.5c.2-.2.4-.3.7-.4.2-.5.5-.8,1-1,.2-.5.5-.8,1-1,.2-.5.5-.8,1-1,.2-.5.5-.8,1-1,.2-.5.5-.8,1-1,.2-.5.5-.8,1-1,.2-.5.5-.8,1-1,.2-.5.5-.8,1-1,.2-.5.5-.8,1-1,.2-.5.5-.8,1-1,.2-.5.5-.8,1-1,.2-.6.8-1.1,1.5-1.1h68.7c.9,0,1.6.7,1.6,1.6v9.9c.2-.2.4-.3.6-.4.2-.5.5-.8,1-1,.2-.5.5-.8,1-1,.2-.5.5-.8,1-1,.2-.5.5-.8,1-1,.2-.5.5-.8,1-1,.2-.5.5-.8,1-1,.2-.5.5-.8,1-1,.2-.5.5-.8,1-1,.2-.5.5-.8,1-1,.2-.5.5-.8,1-1,.2-.6.8-1.1,1.5-1.1h137.1c21.2,0,37.2,4,48.8,12.3,0,0,.3-.2.5-.2.2-.5.5-.8,1-1,.2-.5.5-.8,1-1,.2-.5.5-.8,1-1,.2-.5.5-.8,1-1,.2-.5.5-.8,1-1,.2-.5.5-.8,1-1,.2-.5.5-.8,1-1,.2-.5.5-.8,1-1,.2-.5.5-.8,1-1,.2-.5.5-.8,1-1,.2-.5.5-.8,1-1,.2-.6.8-1.1,1.5-1.1h191.5c.9,0,1.6.7,1.6,1.6h-.4ZM827.9,52V11h-112.1v41h30.1v88.7h51.8V52h30.2ZM704.9,140.6V11h-51.6v129.7h51.6ZM587.9,104.2c39,0,54.4-14.6,54.4-46.1s-18.9-47.1-59.1-47.1h-62.3v129.7h52v-36.4h15,0ZM506.1,140.6V11h-51.6v43.4h-30.6V11h-51.8v129.7h51.8v-45.7h30.6v45.7h51.6ZM361,97.3c0-13.2-5.3-22.3-14.8-27.8-7.5-4.1-17.7-6.3-31.5-8.1-11.2-1.6-20.5-2.9-24.2-4.5-2.9-1.6-4.7-4.1-4.7-8.3s4.7-9.7,13.8-9.7,15,4.9,15,15.4h42.2c0-27.6-13-45.3-60.5-45.3s-63.1,17.7-63.1,44.1,5.3,22.7,13.8,27.8c8.1,4.9,21.5,7.7,31.1,9.1,8.7,1,18.1,2.2,22.5,3.5,4.9,1.2,6.7,4.3,6.7,8.7s-3.3,10.4-14,10.4-14.8-6.1-14.8-16h-44.9c0,22.7,9.7,45.9,62.3,45.9s65.2-21.3,65.2-45.3h0ZM221.9,140.6V11h-51.6v129.7h51.6ZM90.5,140.6c48.7,0,69.2-20.5,69.2-65S138.4,11,87.1,11H29v129.7h61.5Z"/>
  <path class="st0" d="M583.7,50c9.3,0,14.4,4.1,14.4,13.6s-5.3,14-13.6,14h-11.6v-27.6h10.8,0Z"/>
  <path class="st0" d="M107.6,75.6c0,18.9-6.3,26-17.1,26h-9.5v-51.6h8.9c10.8,0,17.7,7.9,17.7,25.6Z"/>
</svg>